<svg width="40" height="40" viewBox="0 0 40 40" fill="none" xmlns="http://www.w3.org/2000/svg">
<mask id="path-1-inside-1_1_6" fill="white">
<path d="M0 0H40V40H0V0Z"/>
<path d="M2 2H38V38H2V2Z"/>
<path d="M10.6477 9.72727V17H9.79545L5.83239 11.2898H5.76136V17H4.88068V9.72727H5.73295L9.71023 15.4517H9.78125V9.72727H10.6477Z"/>
<path d="M14.5833 17.1136C14.0577 17.1136 13.6043 16.9976 13.2232 16.7656C12.8444 16.5312 12.552 16.2045 12.3461 15.7855C12.1425 15.3641 12.0407 14.8741 12.0407 14.3153C12.0407 13.7566 12.1425 13.2642 12.3461 12.8381C12.552 12.4096 12.8385 12.0758 13.2054 11.8366C13.5748 11.5952 14.0056 11.4744 14.498 11.4744C14.7821 11.4744 15.0627 11.5218 15.3397 11.6165C15.6167 11.7112 15.8688 11.8651 16.0961 12.0781C16.3233 12.2888 16.5044 12.5682 16.6394 12.9162C16.7743 13.2642 16.8418 13.6927 16.8418 14.2017V14.5568H12.6373V13.8324H15.9895C15.9895 13.5246 15.928 13.25 15.8049 13.0085C15.6841 12.767 15.5113 12.5765 15.2864 12.4368C15.0639 12.2971 14.8011 12.2273 14.498 12.2273C14.1642 12.2273 13.8754 12.3101 13.6316 12.4759C13.3901 12.6392 13.2042 12.8523 13.074 13.1151C12.9438 13.3778 12.8787 13.6596 12.8787 13.9602V14.4432C12.8787 14.8551 12.9498 15.2043 13.0918 15.4908C13.2362 15.7749 13.4363 15.9915 13.6919 16.1406C13.9476 16.2874 14.2447 16.3608 14.5833 16.3608C14.8034 16.3608 15.0023 16.33 15.1799 16.2685C15.3598 16.2045 15.5149 16.1098 15.6451 15.9844C15.7753 15.8565 15.8759 15.6979 15.9469 15.5085L16.7566 15.7358C16.6713 16.0104 16.5281 16.2519 16.3269 16.4602C16.1257 16.6662 15.8771 16.8272 15.5811 16.9432C15.2852 17.0568 14.9526 17.1136 14.5833 17.1136Z"/>
<path d="M19.3524 17L17.6905 11.5455H18.5712L19.7502 15.7216H19.807L20.9718 11.5455H21.8667L23.0172 15.7074H23.074L24.253 11.5455H25.1337L23.4718 17H22.6479L21.4547 12.8097H21.3695L20.1763 17H19.3524Z"/>
<path d="M7.125 29H4.88068V21.7273H7.22443C7.92992 21.7273 8.53362 21.8729 9.03551 22.1641C9.53741 22.4529 9.92211 22.8684 10.1896 23.4105C10.4571 23.9503 10.5909 24.5966 10.5909 25.3494C10.5909 26.107 10.456 26.7592 10.1861 27.3061C9.91619 27.8506 9.5232 28.2696 9.0071 28.5632C8.491 28.8544 7.86364 29 7.125 29ZM5.76136 28.2188H7.06818C7.66951 28.2188 8.16785 28.1027 8.56321 27.8707C8.95857 27.6387 9.25331 27.3085 9.44744 26.88C9.64157 26.4515 9.73864 25.9413 9.73864 25.3494C9.73864 24.7623 9.64276 24.2569 9.45099 23.8331C9.25923 23.407 8.97277 23.0803 8.59162 22.853C8.21046 22.6233 7.7358 22.5085 7.16761 22.5085H5.76136V28.2188Z"/>
<path d="M13.5597 29.1278C13.214 29.1278 12.9003 29.0627 12.6186 28.9325C12.3369 28.8 12.1132 28.6094 11.9474 28.3608C11.7817 28.1098 11.6989 27.8068 11.6989 27.4517C11.6989 27.1392 11.7604 26.8859 11.8835 26.6918C12.0066 26.4953 12.1712 26.3414 12.3771 26.2301C12.5831 26.1188 12.8104 26.036 13.0589 25.9815C13.3099 25.9247 13.562 25.8797 13.8153 25.8466C14.1468 25.804 14.4155 25.772 14.6214 25.7507C14.8298 25.727 14.9813 25.688 15.076 25.6335C15.1731 25.5791 15.2216 25.4844 15.2216 25.3494V25.321C15.2216 24.9706 15.1257 24.6984 14.9339 24.5043C14.7446 24.3101 14.4569 24.2131 14.071 24.2131C13.6709 24.2131 13.3572 24.3007 13.13 24.4759C12.9027 24.651 12.7429 24.8381 12.6506 25.0369L11.8551 24.7528C11.9972 24.4214 12.1866 24.1634 12.4233 23.9787C12.6624 23.7917 12.9228 23.6615 13.2045 23.5881C13.4886 23.5123 13.768 23.4744 14.0426 23.4744C14.2178 23.4744 14.419 23.4957 14.6463 23.5384C14.8759 23.5786 15.0973 23.6626 15.3104 23.7905C15.5258 23.9183 15.7045 24.1113 15.8466 24.3693C15.9886 24.6274 16.0597 24.973 16.0597 25.4062V29H15.2216V28.2614H15.179C15.1222 28.3797 15.0275 28.5064 14.8949 28.6413C14.7623 28.7763 14.5859 28.8911 14.3658 28.9858C14.1456 29.0805 13.8769 29.1278 13.5597 29.1278ZM13.6875 28.375C14.0189 28.375 14.2983 28.3099 14.5256 28.1797C14.7552 28.0495 14.928 27.8814 15.044 27.6754C15.1624 27.4695 15.2216 27.2528 15.2216 27.0256V26.2585C15.1861 26.3011 15.108 26.3402 14.9872 26.3757C14.8688 26.4089 14.7315 26.4384 14.5753 26.4645C14.4214 26.4882 14.2711 26.5095 14.1243 26.5284C13.9799 26.545 13.8627 26.5592 13.7727 26.571C13.5549 26.5994 13.3513 26.6456 13.1619 26.7095C12.9749 26.7711 12.8234 26.8646 12.7074 26.9901C12.5937 27.1132 12.5369 27.2812 12.5369 27.4943C12.5369 27.7855 12.6446 28.0057 12.8601 28.1548C13.0779 28.3016 13.3537 28.375 13.6875 28.375Z"/>
<path d="M17.5893 29V23.5455H18.399V24.3693H18.4558C18.5552 24.0994 18.7351 23.8804 18.9956 23.7124C19.256 23.5443 19.5495 23.4602 19.8762 23.4602C19.9378 23.4602 20.0147 23.4614 20.1071 23.4638C20.1994 23.4661 20.2692 23.4697 20.3166 23.4744V24.3267C20.2882 24.3196 20.2231 24.3089 20.1213 24.2947C20.0218 24.2782 19.9165 24.2699 19.8052 24.2699C19.5401 24.2699 19.3033 24.3255 19.095 24.4368C18.889 24.5457 18.7257 24.6972 18.6049 24.8913C18.4866 25.0831 18.4274 25.3021 18.4274 25.5483V29H17.5893Z"/>
<path d="M22.0913 27.0114L22.0771 25.9744H22.2475L24.6339 23.5455H25.6708L23.1282 26.1165H23.0572L22.0913 27.0114ZM21.31 29V21.7273H22.1481V29H21.31ZM24.7759 29L22.6452 26.3011L23.2418 25.7188L25.8413 29H24.7759Z"/>
<path d="M3 3H37V37H3V3Z"/>
</mask>
<path d="M2 2H38V38H2V2Z" fill="white"/>
<path d="M10.6477 9.72727V17H9.79545L5.83239 11.2898H5.76136V17H4.88068V9.72727H5.73295L9.71023 15.4517H9.78125V9.72727H10.6477Z" fill="#4C13C6"/>
<path d="M14.5833 17.1136C14.0577 17.1136 13.6043 16.9976 13.2232 16.7656C12.8444 16.5312 12.552 16.2045 12.3461 15.7855C12.1425 15.3641 12.0407 14.8741 12.0407 14.3153C12.0407 13.7566 12.1425 13.2642 12.3461 12.8381C12.552 12.4096 12.8385 12.0758 13.2054 11.8366C13.5748 11.5952 14.0056 11.4744 14.498 11.4744C14.7821 11.4744 15.0627 11.5218 15.3397 11.6165C15.6167 11.7112 15.8688 11.8651 16.0961 12.0781C16.3233 12.2888 16.5044 12.5682 16.6394 12.9162C16.7743 13.2642 16.8418 13.6927 16.8418 14.2017V14.5568H12.6373V13.8324H15.9895C15.9895 13.5246 15.928 13.25 15.8049 13.0085C15.6841 12.767 15.5113 12.5765 15.2864 12.4368C15.0639 12.2971 14.8011 12.2273 14.498 12.2273C14.1642 12.2273 13.8754 12.3101 13.6316 12.4759C13.3901 12.6392 13.2042 12.8523 13.074 13.1151C12.9438 13.3778 12.8787 13.6596 12.8787 13.9602V14.4432C12.8787 14.8551 12.9498 15.2043 13.0918 15.4908C13.2362 15.7749 13.4363 15.9915 13.6919 16.1406C13.9476 16.2874 14.2447 16.3608 14.5833 16.3608C14.8034 16.3608 15.0023 16.33 15.1799 16.2685C15.3598 16.2045 15.5149 16.1098 15.6451 15.9844C15.7753 15.8565 15.8759 15.6979 15.9469 15.5085L16.7566 15.7358C16.6713 16.0104 16.5281 16.2519 16.3269 16.4602C16.1257 16.6662 15.8771 16.8272 15.5811 16.9432C15.2852 17.0568 14.9526 17.1136 14.5833 17.1136Z" fill="#4C13C6"/>
<path d="M19.3524 17L17.6905 11.5455H18.5712L19.7502 15.7216H19.807L20.9718 11.5455H21.8667L23.0172 15.7074H23.074L24.253 11.5455H25.1337L23.4718 17H22.6479L21.4547 12.8097H21.3695L20.1763 17H19.3524Z" fill="#4C13C6"/>
<path d="M7.125 29H4.88068V21.7273H7.22443C7.92992 21.7273 8.53362 21.8729 9.03551 22.1641C9.53741 22.4529 9.92211 22.8684 10.1896 23.4105C10.4571 23.9503 10.5909 24.5966 10.5909 25.3494C10.5909 26.107 10.456 26.7592 10.1861 27.3061C9.91619 27.8506 9.5232 28.2696 9.0071 28.5632C8.491 28.8544 7.86364 29 7.125 29ZM5.76136 28.2188H7.06818C7.66951 28.2188 8.16785 28.1027 8.56321 27.8707C8.95857 27.6387 9.25331 27.3085 9.44744 26.88C9.64157 26.4515 9.73864 25.9413 9.73864 25.3494C9.73864 24.7623 9.64276 24.2569 9.45099 23.8331C9.25923 23.407 8.97277 23.0803 8.59162 22.853C8.21046 22.6233 7.7358 22.5085 7.16761 22.5085H5.76136V28.2188Z" fill="#4C13C6"/>
<path d="M13.5597 29.1278C13.214 29.1278 12.9003 29.0627 12.6186 28.9325C12.3369 28.8 12.1132 28.6094 11.9474 28.3608C11.7817 28.1098 11.6989 27.8068 11.6989 27.4517C11.6989 27.1392 11.7604 26.8859 11.8835 26.6918C12.0066 26.4953 12.1712 26.3414 12.3771 26.2301C12.5831 26.1188 12.8104 26.036 13.0589 25.9815C13.3099 25.9247 13.562 25.8797 13.8153 25.8466C14.1468 25.804 14.4155 25.772 14.6214 25.7507C14.8298 25.727 14.9813 25.688 15.076 25.6335C15.1731 25.5791 15.2216 25.4844 15.2216 25.3494V25.321C15.2216 24.9706 15.1257 24.6984 14.9339 24.5043C14.7446 24.3101 14.4569 24.2131 14.071 24.2131C13.6709 24.2131 13.3572 24.3007 13.13 24.4759C12.9027 24.651 12.7429 24.8381 12.6506 25.0369L11.8551 24.7528C11.9972 24.4214 12.1866 24.1634 12.4233 23.9787C12.6624 23.7917 12.9228 23.6615 13.2045 23.5881C13.4886 23.5123 13.768 23.4744 14.0426 23.4744C14.2178 23.4744 14.419 23.4957 14.6463 23.5384C14.8759 23.5786 15.0973 23.6626 15.3104 23.7905C15.5258 23.9183 15.7045 24.1113 15.8466 24.3693C15.9886 24.6274 16.0597 24.973 16.0597 25.4062V29H15.2216V28.2614H15.179C15.1222 28.3797 15.0275 28.5064 14.8949 28.6413C14.7623 28.7763 14.5859 28.8911 14.3658 28.9858C14.1456 29.0805 13.8769 29.1278 13.5597 29.1278ZM13.6875 28.375C14.0189 28.375 14.2983 28.3099 14.5256 28.1797C14.7552 28.0495 14.928 27.8814 15.044 27.6754C15.1624 27.4695 15.2216 27.2528 15.2216 27.0256V26.2585C15.1861 26.3011 15.108 26.3402 14.9872 26.3757C14.8688 26.4089 14.7315 26.4384 14.5753 26.4645C14.4214 26.4882 14.2711 26.5095 14.1243 26.5284C13.9799 26.545 13.8627 26.5592 13.7727 26.571C13.5549 26.5994 13.3513 26.6456 13.1619 26.7095C12.9749 26.7711 12.8234 26.8646 12.7074 26.9901C12.5937 27.1132 12.5369 27.2812 12.5369 27.4943C12.5369 27.7855 12.6446 28.0057 12.8601 28.1548C13.0779 28.3016 13.3537 28.375 13.6875 28.375Z" fill="#4C13C6"/>
<path d="M17.5893 29V23.5455H18.399V24.3693H18.4558C18.5552 24.0994 18.7351 23.8804 18.9956 23.7124C19.256 23.5443 19.5495 23.4602 19.8762 23.4602C19.9378 23.4602 20.0147 23.4614 20.1071 23.4638C20.1994 23.4661 20.2692 23.4697 20.3166 23.4744V24.3267C20.2882 24.3196 20.2231 24.3089 20.1213 24.2947C20.0218 24.2782 19.9165 24.2699 19.8052 24.2699C19.5401 24.2699 19.3033 24.3255 19.095 24.4368C18.889 24.5457 18.7257 24.6972 18.6049 24.8913C18.4866 25.0831 18.4274 25.3021 18.4274 25.5483V29H17.5893Z" fill="#4C13C6"/>
<path d="M22.0913 27.0114L22.0771 25.9744H22.2475L24.6339 23.5455H25.6708L23.1282 26.1165H23.0572L22.0913 27.0114ZM21.31 29V21.7273H22.1481V29H21.31ZM24.7759 29L22.6452 26.3011L23.2418 25.7188L25.8413 29H24.7759Z" fill="#4C13C6"/>
<path d="M0 0H40V40H0V0Z" stroke="#7C27E8" stroke-width="0.4" mask="url(#path-1-inside-1_1_6)"/>
<path d="M2 2H38V38H2V2Z" stroke="#7C27E8" stroke-width="0.4" mask="url(#path-1-inside-1_1_6)"/>
<path d="M10.6477 9.72727V17H9.79545L5.83239 11.2898H5.76136V17H4.88068V9.72727H5.73295L9.71023 15.4517H9.78125V9.72727H10.6477Z" stroke="#7C27E8" stroke-width="0.4" mask="url(#path-1-inside-1_1_6)"/>
<path d="M14.5833 17.1136C14.0577 17.1136 13.6043 16.9976 13.2232 16.7656C12.8444 16.5312 12.552 16.2045 12.3461 15.7855C12.1425 15.3641 12.0407 14.8741 12.0407 14.3153C12.0407 13.7566 12.1425 13.2642 12.3461 12.8381C12.552 12.4096 12.8385 12.0758 13.2054 11.8366C13.5748 11.5952 14.0056 11.4744 14.498 11.4744C14.7821 11.4744 15.0627 11.5218 15.3397 11.6165C15.6167 11.7112 15.8688 11.8651 16.0961 12.0781C16.3233 12.2888 16.5044 12.5682 16.6394 12.9162C16.7743 13.2642 16.8418 13.6927 16.8418 14.2017V14.5568H12.6373V13.8324H15.9895C15.9895 13.5246 15.928 13.25 15.8049 13.0085C15.6841 12.767 15.5113 12.5765 15.2864 12.4368C15.0639 12.2971 14.8011 12.2273 14.498 12.2273C14.1642 12.2273 13.8754 12.3101 13.6316 12.4759C13.3901 12.6392 13.2042 12.8523 13.074 13.1151C12.9438 13.3778 12.8787 13.6596 12.8787 13.9602V14.4432C12.8787 14.8551 12.9498 15.2043 13.0918 15.4908C13.2362 15.7749 13.4363 15.9915 13.6919 16.1406C13.9476 16.2874 14.2447 16.3608 14.5833 16.3608C14.8034 16.3608 15.0023 16.33 15.1799 16.2685C15.3598 16.2045 15.5149 16.1098 15.6451 15.9844C15.7753 15.8565 15.8759 15.6979 15.9469 15.5085L16.7566 15.7358C16.6713 16.0104 16.5281 16.2519 16.3269 16.4602C16.1257 16.6662 15.8771 16.8272 15.5811 16.9432C15.2852 17.0568 14.9526 17.1136 14.5833 17.1136Z" stroke="#7C27E8" stroke-width="0.4" mask="url(#path-1-inside-1_1_6)"/>
<path d="M19.3524 17L17.6905 11.5455H18.5712L19.7502 15.7216H19.807L20.9718 11.5455H21.8667L23.0172 15.7074H23.074L24.253 11.5455H25.1337L23.4718 17H22.6479L21.4547 12.8097H21.3695L20.1763 17H19.3524Z" stroke="#7C27E8" stroke-width="0.4" mask="url(#path-1-inside-1_1_6)"/>
<path d="M7.125 29H4.88068V21.7273H7.22443C7.92992 21.7273 8.53362 21.8729 9.03551 22.1641C9.53741 22.4529 9.92211 22.8684 10.1896 23.4105C10.4571 23.9503 10.5909 24.5966 10.5909 25.3494C10.5909 26.107 10.456 26.7592 10.1861 27.3061C9.91619 27.8506 9.5232 28.2696 9.0071 28.5632C8.491 28.8544 7.86364 29 7.125 29ZM5.76136 28.2188H7.06818C7.66951 28.2188 8.16785 28.1027 8.56321 27.8707C8.95857 27.6387 9.25331 27.3085 9.44744 26.88C9.64157 26.4515 9.73864 25.9413 9.73864 25.3494C9.73864 24.7623 9.64276 24.2569 9.45099 23.8331C9.25923 23.407 8.97277 23.0803 8.59162 22.853C8.21046 22.6233 7.7358 22.5085 7.16761 22.5085H5.76136V28.2188Z" stroke="#7C27E8" stroke-width="0.4" mask="url(#path-1-inside-1_1_6)"/>
<path d="M13.5597 29.1278C13.214 29.1278 12.9003 29.0627 12.6186 28.9325C12.3369 28.8 12.1132 28.6094 11.9474 28.3608C11.7817 28.1098 11.6989 27.8068 11.6989 27.4517C11.6989 27.1392 11.7604 26.8859 11.8835 26.6918C12.0066 26.4953 12.1712 26.3414 12.3771 26.2301C12.5831 26.1188 12.8104 26.036 13.0589 25.9815C13.3099 25.9247 13.562 25.8797 13.8153 25.8466C14.1468 25.804 14.4155 25.772 14.6214 25.7507C14.8298 25.727 14.9813 25.688 15.076 25.6335C15.1731 25.5791 15.2216 25.4844 15.2216 25.3494V25.321C15.2216 24.9706 15.1257 24.6984 14.9339 24.5043C14.7446 24.3101 14.4569 24.2131 14.071 24.2131C13.6709 24.2131 13.3572 24.3007 13.13 24.4759C12.9027 24.651 12.7429 24.8381 12.6506 25.0369L11.8551 24.7528C11.9972 24.4214 12.1866 24.1634 12.4233 23.9787C12.6624 23.7917 12.9228 23.6615 13.2045 23.5881C13.4886 23.5123 13.768 23.4744 14.0426 23.4744C14.2178 23.4744 14.419 23.4957 14.6463 23.5384C14.8759 23.5786 15.0973 23.6626 15.3104 23.7905C15.5258 23.9183 15.7045 24.1113 15.8466 24.3693C15.9886 24.6274 16.0597 24.973 16.0597 25.4062V29H15.2216V28.2614H15.179C15.1222 28.3797 15.0275 28.5064 14.8949 28.6413C14.7623 28.7763 14.5859 28.8911 14.3658 28.9858C14.1456 29.0805 13.8769 29.1278 13.5597 29.1278ZM13.6875 28.375C14.0189 28.375 14.2983 28.3099 14.5256 28.1797C14.7552 28.0495 14.928 27.8814 15.044 27.6754C15.1624 27.4695 15.2216 27.2528 15.2216 27.0256V26.2585C15.1861 26.3011 15.108 26.3402 14.9872 26.3757C14.8688 26.4089 14.7315 26.4384 14.5753 26.4645C14.4214 26.4882 14.2711 26.5095 14.1243 26.5284C13.9799 26.545 13.8627 26.5592 13.7727 26.571C13.5549 26.5994 13.3513 26.6456 13.1619 26.7095C12.9749 26.7711 12.8234 26.8646 12.7074 26.9901C12.5937 27.1132 12.5369 27.2812 12.5369 27.4943C12.5369 27.7855 12.6446 28.0057 12.8601 28.1548C13.0779 28.3016 13.3537 28.375 13.6875 28.375Z" stroke="#7C27E8" stroke-width="0.4" mask="url(#path-1-inside-1_1_6)"/>
<path d="M17.5893 29V23.5455H18.399V24.3693H18.4558C18.5552 24.0994 18.7351 23.8804 18.9956 23.7124C19.256 23.5443 19.5495 23.4602 19.8762 23.4602C19.9378 23.4602 20.0147 23.4614 20.1071 23.4638C20.1994 23.4661 20.2692 23.4697 20.3166 23.4744V24.3267C20.2882 24.3196 20.2231 24.3089 20.1213 24.2947C20.0218 24.2782 19.9165 24.2699 19.8052 24.2699C19.5401 24.2699 19.3033 24.3255 19.095 24.4368C18.889 24.5457 18.7257 24.6972 18.6049 24.8913C18.4866 25.0831 18.4274 25.3021 18.4274 25.5483V29H17.5893Z" stroke="#7C27E8" stroke-width="0.4" mask="url(#path-1-inside-1_1_6)"/>
<path d="M22.0913 27.0114L22.0771 25.9744H22.2475L24.6339 23.5455H25.6708L23.1282 26.1165H23.0572L22.0913 27.0114ZM21.31 29V21.7273H22.1481V29H21.31ZM24.7759 29L22.6452 26.3011L23.2418 25.7188L25.8413 29H24.7759Z" stroke="#7C27E8" stroke-width="0.4" mask="url(#path-1-inside-1_1_6)"/>
<path d="M3 3H37V37H3V3Z" stroke="#7C27E8" stroke-width="0.4" mask="url(#path-1-inside-1_1_6)"/>
</svg>
